<svg id="Layer_1" data-name="Layer 1" xmlns="http://www.w3.org/2000/svg" viewBox="0 0 600 180"><defs><style>.cls-1{fill:#754c24;}.cls-2{fill:#feb62f;}.cls-3{font-size:163.78px;fill:#ec2024;font-family:MyriadPro-Regular, Myriad Pro;}.cls-4{letter-spacing:0em;}.cls-5{letter-spacing:-0.01em;}</style></defs><title>ureg_asia_logo</title><path class="cls-1" d="M33.32,115.91a17.66,17.66,0,0,1-7.27-1.37,10.25,10.25,0,0,1-4.71-4.18,13.21,13.21,0,0,1-1.45-3.92,26.35,26.35,0,0,1-.48-5.39V64.88H3v37.76a31.32,31.32,0,0,0,.87,7.66,21.6,21.6,0,0,0,2.66,6.31,23,23,0,0,0,9.34,8.16c10.25-2.3,18.17-5.59,22.41-9.44A19.68,19.68,0,0,1,33.32,115.91Z" transform="translate(-3 9)"/><path class="cls-2" d="M47.23,64.88v36.49a18,18,0,0,1-1.59,8.35,10.15,10.15,0,0,1-4.74,4.66,14.26,14.26,0,0,1-2.62,1c-4.24,3.85-12.16,7.14-22.41,9.44l.7.36q6.65,3.15,16.75,3.15a46.88,46.88,0,0,0,9.66-.92,33.28,33.28,0,0,0,7.75-2.62,23.72,23.72,0,0,0,6-4.08,21.14,21.14,0,0,0,4.12-5.32,26.12,26.12,0,0,0,2.84-12.7V64.88Z" transform="translate(-3 9)"/><text x="-3" y="9"></text><text x="-3" y="9"></text><text x="-3" y="9"></text><text class="cls-3" transform="translate(64.32 139.05) scale(0.97 1)"><tspan class="cls-4">R</tspan><tspan x="88.77" y="0">e</tspan><tspan class="cls-5" x="170.82" y="0">g</tspan><tspan x="259.92" y="0">.asia</tspan></text></svg>